<svg width="686" height="286" viewBox="0 0 686 286" fill="none" xmlns="http://www.w3.org/2000/svg">
<rect width="686" height="286" fill="white"/>
<path d="M546.719 271.123L631.124 150.285C631.31 150.018 631.541 149.779 631.81 149.575L633.389 148.376C633.668 148.165 633.906 147.916 634.095 147.638L658.888 111.252C659.101 110.837 659.187 110.509 659.169 110.165C659.133 109.47 658.522 108.925 657.852 108.562L653.939 106.445C653.149 106.017 652.185 105.856 651.321 106.148C650.928 106.281 650.585 106.431 650.229 106.625C649.812 106.853 649.487 107.189 649.245 107.566L625.494 144.59C625.313 144.872 625.184 145.178 625.113 145.496L624.653 147.528C624.574 147.878 624.426 148.213 624.216 148.518L549.156 257.269C549.022 257.464 548.874 257.649 548.713 257.822L547.82 258.789C546.707 259.993 544.748 260.257 543.27 259.414C535.625 255.055 530.611 252.694 523.529 251.304C523.079 251.215 522.612 251.216 522.158 251.29C520.379 251.582 519.06 251.745 517.619 252.539C517.437 252.639 517.271 252.762 517.121 252.898C516.031 253.891 515.493 254.637 514.899 255.761C514.696 256.144 514.6 256.563 514.6 256.986V265.528C514.6 265.892 514.672 266.255 514.825 266.593C515.603 268.308 516.37 269.304 517.847 270.52C518.193 270.805 518.613 271.012 519.064 271.137C527.077 273.363 532.028 274.065 540.611 273.995C541.127 273.991 541.636 273.881 542.098 273.677L545.334 272.244C545.904 271.992 546.384 271.604 546.719 271.123Z" fill="#16A34A" stroke="#16A34A" stroke-width="10" stroke-linejoin="round"/>
<path d="M641.481 271.123L557.076 150.285C556.89 150.018 556.659 149.779 556.39 149.575L554.811 148.376C554.532 148.165 554.294 147.916 554.105 147.638L529.312 111.252C529.099 110.837 529.013 110.509 529.031 110.165C529.067 109.47 529.678 108.925 530.348 108.562L534.261 106.445C535.051 106.017 536.015 105.856 536.879 106.148C537.272 106.281 537.615 106.431 537.971 106.625C538.388 106.853 538.713 107.189 538.955 107.566L562.706 144.59C562.887 144.872 563.016 145.178 563.088 145.496L563.547 147.528C563.626 147.878 563.774 148.213 563.984 148.518L639.044 257.269C639.178 257.464 639.326 257.649 639.487 257.822L640.38 258.789C641.493 259.993 643.452 260.257 644.93 259.414C652.575 255.055 657.589 252.694 664.671 251.304C665.121 251.215 665.588 251.216 666.042 251.29C667.821 251.582 669.14 251.745 670.581 252.539C670.763 252.639 670.929 252.762 671.079 252.898C672.169 253.891 672.707 254.637 673.301 255.761C673.504 256.143 673.6 256.563 673.6 256.986V265.528C673.6 265.892 673.528 266.255 673.375 266.593C672.597 268.308 671.83 269.304 670.353 270.52C670.007 270.805 669.587 271.012 669.136 271.137C661.123 273.363 656.172 274.065 647.589 273.995C647.073 273.991 646.564 273.881 646.102 273.677L642.866 272.244C642.296 271.992 641.816 271.604 641.481 271.123Z" fill="#16A34A" stroke="#16A34A" stroke-width="10" stroke-linejoin="round"/>
<path d="M94.4 2.40003L75.8 5.20002C73.4 5.46668 71.6 6.00001 70.4 6.80002C69.3333 7.60002 68.8 8.80003 68.8 10.4V268.8C68.8 271.6 69.6 273.6 71.2 274.8C72.9333 276 75.4 276.6 78.6 276.6H128.8C135.2 276.6 141.067 275.467 146.4 273.2C151.733 270.933 156.867 266.867 161.8 261C166.867 255.133 172 246.667 177.2 235.6L193.8 200C194.2 199.333 194.533 198.867 194.8 198.6C195.067 198.333 195.4 198.267 195.8 198.4C196.333 198.4 196.6 198.667 196.6 199.2C196.733 199.6 196.667 200.267 196.4 201.2L178.4 282C178 283.6 177.667 284.6 177.4 285C177.133 285.533 176.867 285.8 176.6 285.8C175.667 285.8 174.333 285.333 172.6 284.4C171 283.467 168.8 282.467 166 281.4C163.333 280.467 159.8 280 155.4 280H1.6C1.06667 280 0.666667 279.867 0.4 279.6C0.133333 279.333 2.98023e-07 279.067 2.98023e-07 278.8C2.98023e-07 278.133 0.666667 277.733 2 277.6L20.6 274.8C23 274.533 24.7333 274 25.8 273.2C27 272.4 27.6 271.2 27.6 269.6V10.4C27.6 8.80003 27 7.60002 25.8 6.80002C24.7333 6.00001 23 5.46668 20.6 5.20002L2 2.40003C0.666667 2.26669 2.98023e-07 1.86669 2.98023e-07 1.20002C2.98023e-07 0.800017 0.133333 0.533346 0.4 0.400006C0.666667 0.133343 1.06667 1.14441e-05 1.6 1.14441e-05H94.8C95.3333 1.14441e-05 95.7333 0.133343 96 0.400006C96.2667 0.533346 96.4 0.800017 96.4 1.20002C96.4 1.86669 95.7333 2.26669 94.4 2.40003ZM263.853 105.2V269.8C263.853 271.4 264.253 272.667 265.053 273.6C265.853 274.533 267.053 275.2 268.653 275.6L281.253 277.4C282.053 277.533 282.586 277.733 282.853 278C283.12 278.133 283.253 278.4 283.253 278.8C283.253 279.2 283.12 279.533 282.853 279.8C282.586 279.933 282.186 280 281.653 280H209.853C209.586 280 209.32 279.933 209.053 279.8C208.786 279.533 208.653 279.2 208.653 278.8C208.653 278.667 208.786 278.467 209.053 278.2C209.32 277.933 209.72 277.733 210.253 277.6L223.653 275.6C225.386 275.2 226.586 274.533 227.253 273.6C228.053 272.667 228.453 271.467 228.453 270V122.2C228.453 121.533 228.253 121 227.853 120.6C227.586 120.2 226.986 120 226.053 120H210.453C210.053 120 209.72 119.867 209.453 119.6C209.186 119.333 209.053 119.067 209.053 118.8C209.053 118.267 209.186 117.933 209.453 117.8C209.72 117.533 210.12 117.333 210.653 117.2L258.653 103.8C259.72 103.533 260.453 103.4 260.853 103.4C261.253 103.267 261.653 103.2 262.053 103.2C262.72 103.2 263.186 103.4 263.453 103.8C263.72 104.2 263.853 104.667 263.853 105.2ZM245.053 71C238.52 71 233.186 68.8 229.053 64.4C225.053 59.8667 223.053 54.3333 223.053 47.8C223.053 41.2667 225.12 35.8 229.253 31.4C233.52 26.8667 238.786 24.6 245.053 24.6C251.72 24.6 257.12 26.8667 261.253 31.4C265.52 35.9333 267.653 41.4 267.653 47.8C267.653 54.3333 265.52 59.8667 261.253 64.4C256.986 68.8 251.586 71 245.053 71ZM350.934 105.2V269.8C350.934 271.4 351.334 272.667 352.134 273.6C352.934 274.533 354.134 275.2 355.734 275.6L368.334 277.4C369.668 277.533 370.334 278 370.334 278.8C370.334 279.6 369.801 280 368.734 280H296.934C296.668 280 296.401 279.933 296.134 279.8C295.868 279.533 295.734 279.2 295.734 278.8C295.734 278.667 295.868 278.467 296.134 278.2C296.401 277.933 296.801 277.733 297.334 277.6L310.734 275.6C312.468 275.2 313.668 274.533 314.334 273.6C315.134 272.667 315.534 271.467 315.534 270V122.2C315.534 121.533 315.334 121 314.934 120.6C314.668 120.2 314.068 120 313.134 120H297.534C297.134 120 296.801 119.867 296.534 119.6C296.268 119.333 296.134 119.067 296.134 118.8C296.134 118.267 296.268 117.933 296.534 117.8C296.801 117.533 297.201 117.333 297.734 117.2L345.734 103.8C346.801 103.533 347.534 103.4 347.934 103.4C348.334 103.267 348.734 103.2 349.134 103.2C349.801 103.2 350.268 103.4 350.534 103.8C350.801 104.2 350.934 104.667 350.934 105.2ZM348.134 142L346.534 140.2L353.334 134C366.001 122.533 376.801 114.4 385.734 109.6C394.801 104.8 403.534 102.4 411.934 102.4C424.201 102.4 433.734 106.467 440.534 114.6C447.468 122.6 452.134 135 454.534 151.8L470.134 268.2C470.401 270.333 471.001 272.133 471.934 273.6C473.001 274.933 474.668 275.733 476.934 276L487.534 277.6C488.201 277.733 488.668 277.933 488.934 278.2C489.201 278.333 489.334 278.533 489.334 278.8C489.334 279.2 489.201 279.533 488.934 279.8C488.668 279.933 488.268 280 487.734 280H414.734C413.534 280 412.934 279.6 412.934 278.8C412.934 278.267 413.668 277.8 415.134 277.4L428.134 275.6C430.534 275.2 432.134 274.333 432.934 273C433.868 271.533 434.201 269.933 433.934 268.2L419.534 155.4C417.668 142.467 414.468 133 409.934 127C405.534 121 399.001 118 390.334 118C384.601 118 378.868 119.467 373.134 122.4C367.534 125.333 361.401 129.867 354.734 136L348.134 142Z" fill="#16A34A"/>
<path d="M503.158 279.054C503.202 279.207 503.246 279.332 503.291 279.434C503.529 279.975 504.238 280 504.829 280H559.321C560.202 280 561.36 279.51 561.09 278.671C560.956 278.257 560.527 278.034 560.119 277.881C559.951 277.819 559.78 277.753 559.605 277.685C555.55 276.108 543.179 276.1 538.829 276.045L514.83 275.741C509.881 276.273 508.249 276.659 506.276 277.155C505.411 277.373 502.91 278.196 503.158 279.054Z" fill="#16A34A"/>
<path d="M685.577 279.054C685.533 279.207 685.489 279.332 685.444 279.434C685.206 279.975 684.497 280 683.906 280H629.414C628.533 280 627.375 279.51 627.645 278.671C627.779 278.257 628.208 278.034 628.616 277.881C628.784 277.819 628.955 277.753 629.13 277.685C633.185 276.108 645.556 276.1 649.906 276.045L673.905 275.741C678.854 276.273 680.486 276.659 682.459 277.155C683.324 277.373 685.825 278.196 685.577 279.054Z" fill="#16A34A"/>
</svg>
